<svg width="800" height="600" viewBox="0 0 800 600" xmlns="http://www.w3.org/2000/svg">
  <!-- Background -->
  <rect width="100%" height="100%" fill="none" />

  <!-- Define gradients for the mountains -->
  <defs>
    <linearGradient id="mountainGrad1" x1="0%" y1="100%" x2="100%" y2="0%">
      <stop offset="0%" style="stop-color:#4a4a4a;stop-opacity:1" />
      <stop offset="30%" style="stop-color:#3c3c3c;stop-opacity:1" />
      <stop offset="60%" style="stop-color:#2e2e2e;stop-opacity:1" />
      <stop offset="100%" style="stop-color:#1c1c1c;stop-opacity:1" />
    </linearGradient>

    <linearGradient id="mountainGrad2" x1="0%" y1="100%" x2="100%" y2="0%">
      <stop offset="0%" style="stop-color:#6e6e6e;stop-opacity:1" />
      <stop offset="30%" style="stop-color:#5e5e5e;stop-opacity:1" />
      <stop offset="60%" style="stop-color:#4d4d4d;stop-opacity:1" />
      <stop offset="100%" style="stop-color:#2a2a2a;stop-opacity:1" />
    </linearGradient>

    <linearGradient id="mountainGrad3" x1="0%" y1="100%" x2="100%" y2="0%">
      <stop offset="0%" style="stop-color:#8c8c8c;stop-opacity:1" />
      <stop offset="30%" style="stop-color:#7a7a7a;stop-opacity:1" />
      <stop offset="60%" style="stop-color:#6e6e6e;stop-opacity:1" />
      <stop offset="100%" style="stop-color:#4a4a4a;stop-opacity:1" />
    </linearGradient>
  </defs>

  <!-- Mountain Ranges -->
  <g stroke="#333" stroke-width="4" fill="none">
    <!-- Left Mountain Range -->
    <polygon points="0,600 150,300 300,600" fill="url(#mountainGrad1)" />
    <polygon points="150,300 300,150 450,300" fill="url(#mountainGrad2)" />
    <polygon points="300,600 450,300 600,600" fill="url(#mountainGrad3)" />
    
    <!-- Right Mountain Range -->
    <polygon points="400,600 550,350 700,600" fill="url(#mountainGrad1)" />
    <polygon points="550,350 700,200 850,350" fill="url(#mountainGrad2)" />
    <polygon points="700,600 850,350 1000,600" fill="url(#mountainGrad3)" />
  </g>

  <!-- Additional Angular Elements -->
  <g fill="none" stroke="#444" stroke-width="3">
    <!-- Diagonal lines for texture -->
    <line x1="100" y1="400" x2="500" y2="200" />
    <line x1="200" y1="500" x2="600" y2="300" />
    <line x1="300" y1="600" x2="700" y2="400" />
    <line x1="400" y1="500" x2="800" y2="300" />
  </g>
</svg>
